<?xml version="1.0" encoding="UTF-8" standalone="no"?>
<svg xmlns:dc="http://purl.org/dc/elements/1.1/" xmlns:cc="http://creativecommons.org/ns#" xmlns:rdf="http://www.w3.org/1999/02/22-rdf-syntax-ns#" xmlns:svg="http://www.w3.org/2000/svg" xmlns="http://www.w3.org/2000/svg" xmlns:sodipodi="http://sodipodi.sourceforge.net/DTD/sodipodi-0.dtd" xmlns:inkscape="http://www.inkscape.org/namespaces/inkscape" version="1.1" id="Ebene_1" x="0px" y="0px" width="312.99933" height="119.6589" viewBox="0 0 312.99933 119.6589" enable-background="new 0 0 134 40" xml:space="preserve" inkscape:version="0.91 r13725" sodipodi:docname="logo.svg"><metadata id="metadata27"><rdf:RDF><cc:Work rdf:about=""><dc:format>image/svg+xml</dc:format><dc:type rdf:resource="http://purl.org/dc/dcmitype/StillImage"/><dc:title/></cc:Work></rdf:RDF></metadata><defs id="defs25"/><sodipodi:namedview pagecolor="#ffffff" bordercolor="#666666" borderopacity="1" objecttolerance="10" gridtolerance="10" guidetolerance="10" inkscape:pageopacity="0" inkscape:pageshadow="2" inkscape:window-width="1366" inkscape:window-height="705" id="namedview23" showgrid="false" inkscape:zoom="1.3395522" inkscape:cx="173.65212" inkscape:cy="19.074824" inkscape:window-x="-8" inkscape:window-y="-8" inkscape:window-maximized="1" inkscape:current-layer="Ebene_1" fit-margin-top="0" fit-margin-left="0" fit-margin-right="0" fit-margin-bottom="0"/><g transform="matrix(0.1296169,0,0,0.1296169,-964.3471,-871.90503)" id="g4420"><path id="path4422" d="m 7815.1118,6826.9648 0,0 c -10.7918,0.012 -19.7278,8.8192 -20.4395,20.1445 -27.7281,2.8477 -54.5629,8.6793 -80.1816,17.1641 -4.522,-9.5927 -14.9766,-14.5194 -24.6445,-11.6133 -10.8409,3.2666 -16.8458,15.1558 -13.4141,26.5586 -24.8527,11.3528 -48.2611,25.307 -69.873,41.5234 -7.7563,-8.3477 -20.3162,-9.4761 -28.6719,-2.5761 -8.421,6.976 -9.6043,19.675 -2.6895,28.8632 -19.7639,18.4626 -37.5519,39.0177 -53.0019,61.3165 -10.0217,-5.2099 -22.1155,-2.1511 -27.7227,7.0117 -5.5717,9.1269 -2.8323,21.2253 6.293,27.7929 -12.5962,23.1721 -22.8422,47.8119 -30.4277,73.5977 -10.4053,-1.393 -20.1327,4.5853 -23.0274,14.1523 -3.1425,10.4415 2.8585,21.6445 13.6582,25.4981 -3.9518,21.9685 -6.0176,44.5972 -6.0176,67.7148 0,4.873 0.092,9.7248 0.2735,14.5528 -9.9378,3.0102 -16.2893,12.3195 -15.1035,22.1367 1.1492,9.3641 8.8697,16.696 18.707,17.7656 3.986,27.7787 10.9721,54.5809 20.6289,80.0625 -8.9949,5.4242 -12.8447,16.181 -9.1113,25.459 3.9233,9.7371 14.947,14.7858 25.541,11.6973 12.4212,24.4452 27.4154,47.355 44.6269,68.3789 -6.6803,7.4617 -7.4609,18.2323 -1.8828,25.9785 6.5898,9.1175 19.675,10.9494 29.3262,4.1055 19.4711,19.1745 41.0096,36.2535 64.2539,50.8789 -3.8887,8.9475 -1.463,19.1351 5.9082,24.8144 8.9759,6.9067 22.1408,4.8526 29.4043,-4.5879 0.1005,-0.1369 0.1995,-0.2749 0.2969,-0.414 24.1928,11.7987 49.8327,21.1003 76.5879,27.5664 -1.3376,10.025 4.1903,19.4472 13.2832,22.6406 10.6903,3.739 22.5443,-2.3446 26.4765,-13.5879 0.1826,-0.5303 0.3455,-1.0672 0.4883,-1.6094 16.1378,2.0906 32.5953,3.1739 49.3086,3.1739 l 31.5703,0 c 1.3379,10.65 9.9257,18.634 20.1406,18.7246 10.3307,0.07 19.1035,-7.9541 20.4727,-18.7246 l 80.3867,0 c 1.3379,10.65 9.9257,18.634 20.1406,18.7246 10.3307,0.07 19.1035,-7.9541 20.4727,-18.7246 l 80.6367,0 c 1.3379,10.65 9.9257,18.634 20.1406,18.7246 10.3307,0.07 19.1035,-7.9541 20.4727,-18.7246 l 80.8867,0 c 1.3379,10.65 9.9257,18.634 20.1406,18.7246 10.3307,0.07 19.1035,-7.9541 20.4727,-18.7246 l 41.0625,0 11.2227,-50.004 c -162.7307,0.01 -325.4817,0 -488.2188,0 -182.7051,0 -329.0137,-146.3066 -329.0137,-329.0117 0,-182.7051 146.3086,-329.0136 329.0137,-329.0136 l 267.0391,0 11.2207,-49.9981 -5.4278,0 -28.7265,0 c -1.6013,-10.448 -10.1741,-18.1304 -20.2363,-18.1348 -10.0557,0.013 -18.6186,7.6937 -20.2188,18.1348 l -81.2695,0 c -1.6012,-10.4472 -10.1728,-18.1294 -20.2344,-18.1348 -10.0564,0.012 -18.6204,7.693 -20.2207,18.1348 l -80.5449,0 c -1.6012,-10.4472 -10.1728,-18.1294 -20.2344,-18.1348 z m 1421.8164,0 c -10.0623,0 -18.635,7.6868 -20.2363,18.1348 l -21.625,0 -11.2207,50 276.9511,0 c 182.7051,0 329.0137,146.3085 329.0137,329.0136 0,182.7051 -146.3086,329.0118 -329.0137,329.0118 l -476.4453,0 -11.2207,50 51.7324,0 c 1.3692,10.7705 10.142,18.7942 20.4727,18.7246 10.2149,-0.091 18.8027,-8.0746 20.1406,-18.7246 l 80.8867,0 c 1.3692,10.7705 10.142,18.7942 20.4727,18.7246 10.2149,-0.091 18.8027,-8.0746 20.1406,-18.7246 l 80.6367,0 c 1.3692,10.7705 10.142,18.7942 20.4727,18.7246 10.2149,-0.091 18.8027,-8.0746 20.1406,-18.7246 l 80.3867,0 c 1.3692,10.7705 10.142,18.7942 20.4727,18.7246 10.2149,-0.091 18.8027,-8.0746 20.1406,-18.7246 l 31.5703,0 c 16.7133,0 33.1708,-1.0833 49.3086,-3.1739 0.1428,0.5422 0.3057,1.0791 0.4883,1.6094 3.9322,11.2433 15.7863,17.3269 26.4766,13.5879 9.0929,-3.1934 14.6208,-12.6156 13.2832,-22.6406 26.7552,-6.4661 52.3951,-15.7677 76.5879,-27.5664 0.097,0.1391 0.1963,0.2771 0.2968,0.414 7.2635,9.4405 20.4284,11.4946 29.4043,4.5879 7.3712,-5.6793 9.7969,-15.8669 5.9082,-24.8144 23.2443,-14.6254 44.7829,-31.7044 64.254,-50.8789 9.6512,6.8438 22.7363,5.0119 29.3261,-4.1055 5.5781,-7.7462 4.7975,-18.5168 -1.8828,-25.9785 17.2115,-21.0239 32.2058,-43.9337 44.627,-68.3789 10.594,3.0885 21.6177,-1.9605 25.541,-11.6973 3.7334,-9.2777 -0.1164,-20.0348 -9.1113,-25.459 9.6568,-25.4816 16.6429,-52.2838 20.6289,-80.0625 9.8373,-1.0696 17.5578,-8.4015 18.707,-17.7656 1.1858,-9.8172 -5.1657,-19.1265 -15.1035,-22.1367 0.1815,-4.828 0.2734,-9.6798 0.2734,-14.5528 0,-23.1176 -2.0658,-45.7463 -6.0176,-67.7148 10.7997,-3.8536 16.8007,-15.0566 13.6582,-25.4981 -2.8947,-9.5669 -12.6221,-15.5453 -23.0273,-14.1523 -7.5855,-25.7858 -17.8315,-50.4256 -30.4277,-73.5977 9.1253,-6.5676 11.8646,-18.666 6.2929,-27.7929 -5.6072,-9.1627 -17.7009,-12.2215 -27.7226,-7.0117 -15.45,-22.2988 -33.2381,-42.8539 -53.002,-61.3165 6.9149,-9.1881 5.7316,-21.8872 -2.6894,-28.8632 -8.3557,-6.9 -20.9156,-5.7716 -28.6719,2.5761 -21.6119,-16.2164 -45.0204,-30.1706 -69.8731,-41.5234 3.4317,-11.4028 -2.5731,-23.2919 -13.414,-26.5586 -9.6679,-2.9061 -20.1224,2.0205 -24.6446,11.6133 -25.6184,-8.4848 -52.4535,-14.3164 -80.1816,-17.1641 -0.7117,-11.3252 -9.6477,-20.1323 -20.4394,-20.1445 -10.0616,0.01 -18.6332,7.6876 -20.2344,18.1348 l -80.5449,0 c -1.6003,-10.4418 -10.1643,-18.1226 -20.2207,-18.1348 -10.0616,0.01 -18.6332,7.6876 -20.2344,18.1348 l -81.2696,0 c -1.6,-10.441 -10.163,-18.1213 -20.2187,-18.1348 z" style="color:#000000;font-style:normal;font-variant:normal;font-weight:normal;font-stretch:normal;font-size:medium;line-height:normal;font-family:sans-serif;text-indent:0;text-align:start;text-decoration:none;text-decoration-line:none;text-decoration-style:solid;text-decoration-color:#000000;letter-spacing:normal;word-spacing:normal;text-transform:none;direction:ltr;block-progression:tb;writing-mode:lr-tb;baseline-shift:baseline;text-anchor:start;white-space:normal;clip-rule:nonzero;display:inline;overflow:visible;visibility:visible;opacity:1;isolation:auto;mix-blend-mode:normal;color-interpolation:sRGB;color-interpolation-filters:linearRGB;solid-color:#000000;solid-opacity:1;fill:#808080;fill-opacity:1;fill-rule:nonzero;stroke:none;stroke-width:50;stroke-linecap:butt;stroke-linejoin:miter;stroke-miterlimit:4;stroke-dasharray:none;stroke-dashoffset:0;stroke-opacity:1;color-rendering:auto;image-rendering:auto;shape-rendering:auto;text-rendering:auto;enable-background:accumulate" inkscape:connector-curvature="0"/><g id="g4424" style="font-style:normal;font-variant:normal;font-weight:normal;font-stretch:normal;font-size:25px;line-height:125%;font-family:'MV Boli';-inkscape-font-specification:'MV Boli, Normal';text-align:start;letter-spacing:0px;word-spacing:0px;writing-mode:lr-tb;text-anchor:start;fill:#00ced1;fill-opacity:1;stroke:none;stroke-width:1px;stroke-linecap:butt;stroke-linejoin:miter;stroke-opacity:1" transform="matrix(17.95588,0,0,17.95588,21775.071,-1477.0418)"><path id="path4426" transform="matrix(0.05569206,0,0,0.05569206,-1212.6986,86.750155)" d="m 8616.3926,6905.6836 -57.209,54.1035 62.6055,0 56.9882,-54.1035 -62.3847,0 z m -936.1524,83.6562 0,306.8633 43.8379,0 0,-109.5937 91.8399,0 46.6875,109.5937 47.7812,0 -52.3847,-122.5273 c 5.5526,-3.5069 10.8129,-7.7427 15.7812,-12.711 17.0968,-17.0967 25.6445,-37.7745 25.6445,-62.0312 l 0,-21.918 c 0,-24.2567 -8.5477,-44.9345 -25.6445,-62.0312 -17.0966,-17.0967 -37.7744,-25.6446 -62.0312,-25.6446 l -131.5118,0 z m 333.166,0 c -24.2567,0 -44.9344,8.5479 -62.0312,25.6446 -17.0966,17.0967 -25.6445,37.7745 -25.6445,62.0312 l 0,131.5117 c 0,24.2569 8.5479,44.9347 25.6445,62.0313 17.0968,17.0967 37.7745,25.6445 62.0312,25.6445 l 65.7559,0 c 24.2568,0 44.9327,-8.5478 62.0293,-25.6445 17.0966,-17.0966 25.6465,-37.7744 25.6465,-62.0313 l 0,-131.5117 c 0,-24.2567 -8.5499,-44.9345 -25.6465,-62.0312 -17.0966,-17.0967 -37.7725,-25.6446 -62.0293,-25.6446 l -65.7559,0 z m 179.7344,0 0,306.8633 175.3496,0 c 18.4119,0 33.9747,-6.3573 46.6875,-19.0703 12.7129,-12.7129 19.0684,-28.2738 19.0684,-46.6855 0,-38.8694 -8.5479,-66.8525 -25.6445,-83.9493 -3.2147,-3.2147 -6.5023,-6.0646 -9.8633,-8.5488 16.366,-16.9506 24.5488,-37.2613 24.5488,-60.9336 l 0,-10.9609 c 0,-21.3342 -7.4526,-39.4526 -22.3574,-54.3574 -14.9047,-14.9049 -33.0231,-22.3575 -54.3574,-22.3575 l -153.4317,0 z m 355.084,0 c -24.2568,0 -44.9345,8.5479 -62.0312,25.6446 -17.0967,17.0967 -25.6446,37.7744 -25.6446,62.0312 l 0,131.5117 c 0,24.2568 8.5479,44.9346 25.6446,62.0313 17.0967,17.0967 37.7744,25.6445 62.0312,25.6445 l 65.7559,0 c 24.2567,0 44.9345,-8.5478 62.0312,-25.6445 17.0967,-17.0967 25.6445,-37.7745 25.6445,-62.0313 l 0,-131.5117 c 0,-24.2568 -8.5478,-44.9345 -25.6445,-62.0312 -17.0967,-17.0967 -37.7745,-25.6446 -62.0312,-25.6446 l -65.7559,0 z m 179.7344,0 0,43.8379 98.6348,0 0,263.0254 43.8378,0 0,-263.0254 98.6329,0 0,-43.8379 -241.1055,0 z m 276.834,0 0,306.8633 43.8379,0 0,-306.8633 -43.8379,0 z m 166.8027,0 c -24.2568,0 -44.9346,8.5479 -62.0312,25.6446 -17.0968,17.0967 -25.6446,37.7745 -25.6446,62.0312 l 0,131.5117 c 0,24.2569 8.5478,44.9347 25.6446,62.0313 17.0966,17.0967 37.7744,25.6445 62.0312,25.6445 l 65.7559,0 c 24.2567,0 44.9325,-8.5478 62.0293,-25.6445 17.0966,-17.0966 25.6464,-37.7744 25.6464,-62.0313 l -43.8378,0 c 0,12.1285 -4.3104,22.5037 -12.9317,31.125 -8.4753,8.4753 -18.7779,12.7129 -30.9062,12.7129 l -65.7559,0 c -12.1285,0 -22.5037,-4.2376 -31.125,-12.7129 -8.4753,-8.6213 -12.7129,-18.9965 -12.7129,-31.125 l 0,-131.5117 c 0,-12.1283 4.2376,-22.4309 12.7129,-30.9062 8.6213,-8.6214 18.9965,-12.9317 31.125,-12.9317 l 65.7559,0 c 12.1283,0 22.4309,4.3103 30.9062,12.9317 8.6213,8.4753 12.9317,18.7779 12.9317,30.9062 l 43.8378,0 c 0,-24.2567 -8.5498,-44.9345 -25.6464,-62.0312 -17.0968,-17.0967 -37.7726,-25.6446 -62.0293,-25.6446 l -65.7559,0 z m 289.3281,0 -109.5937,306.8633 46.248,0 30.6856,-87.6758 109.1562,0 30.6856,87.6758 46.25,0 -109.5938,-306.8633 -43.8379,0 z m -1736.8457,43.8379 87.6739,0 c 12.1284,0 22.4309,4.3103 30.9062,12.9317 8.6213,8.4753 12.9316,18.7779 12.9316,30.9062 l 0,21.918 c 0,12.1284 -4.3103,22.5035 -12.9316,31.125 -8.4753,8.4752 -18.7778,12.7129 -30.9062,12.7129 l -87.6739,0 0,-109.5938 z m 289.3281,0 65.7559,0 c 12.1285,0 22.4311,4.3103 30.9063,12.9317 8.6214,8.4753 12.9316,18.7779 12.9316,30.9062 l 0,131.5117 c 0,12.1285 -4.3102,22.5037 -12.9316,31.125 -8.4752,8.4753 -18.7778,12.7129 -30.9063,12.7129 l -65.7559,0 c -12.1283,0 -22.5035,-4.2376 -31.125,-12.7129 -8.4751,-8.6213 -12.7128,-18.9965 -12.7128,-31.125 l 0,-131.5117 c 0,-12.1283 4.2377,-22.4309 12.7128,-30.9062 8.6215,-8.6214 18.9967,-12.9317 31.125,-12.9317 z m 223.5704,0 109.5957,0 c 9.2058,0 16.9489,3.215 23.2324,9.6446 6.4294,6.2833 9.6445,13.9538 9.6445,23.0136 l 0,11.1797 c 0,12.1285 -4.3103,22.5017 -12.9316,31.1231 -8.4753,8.4753 -18.7779,12.7129 -30.9063,12.7129 l -98.6347,0 0,-87.6739 z m 311.248,0 65.7559,0 c 12.1283,0 22.4309,4.3103 30.9062,12.9317 8.6214,8.4753 12.9317,18.7779 12.9317,30.9062 l 0,131.5117 c 0,12.1285 -4.3103,22.5037 -12.9317,31.125 -8.4753,8.4754 -18.7779,12.7129 -30.9062,12.7129 l -65.7559,0 c -12.1283,0 -22.5035,-4.2375 -31.125,-12.7129 -8.4753,-8.6213 -12.7129,-18.9965 -12.7129,-31.125 l 0,-131.5117 c 0,-12.1283 4.2376,-22.4309 12.7129,-30.9062 8.6215,-8.6214 18.9967,-12.9317 31.125,-12.9317 z m 934.6172,18.8496 39.2344,112.6622 -78.4688,0 39.2344,-112.6622 z m -1245.8652,112.6622 109.5957,0 c 12.1283,0 22.429,4.3122 30.9043,12.9335 8.6214,8.4753 12.9316,26.0833 12.9316,52.8243 0,6.2833 -2.1178,11.5436 -6.3555,15.7812 -4.0914,4.0916 -9.279,6.1367 -15.5625,6.1367 l -131.5136,0 0,-87.6757 z" style="font-style:normal;font-variant:normal;font-weight:bold;font-stretch:normal;font-size:25px;line-height:125%;font-family:Typomoderno;-inkscape-font-specification:'Typomoderno, Bold';text-align:start;writing-mode:lr-tb;text-anchor:start;fill:#00b5bf;fill-opacity:0.94117647" inkscape:connector-curvature="0"/></g><path id="path4428" d="m 8568.3169,6726.7871 c -1.1489,-0.049 -1.1934,0.7794 -1.1934,3.8535 0,5.214 -4.968,29.7887 -14.1133,69.8164 -16.5344,72.3689 -20.8867,93.7362 -20.8867,102.5332 0,15.4369 9.6044,26.7099 25.0117,29.3575 10.2444,1.7603 24.3323,-0.5557 35.7422,-5.875 30.5662,-14.2499 53.3719,-49.1498 54.9766,-84.1329 0.5656,-12.3305 -0.4177,-18.9605 -3.9375,-26.5468 -5.0562,-10.8979 -17.2366,-17.1773 -31.0703,-16.0176 -8.2499,0.6917 -19.4047,5.5926 -25.7207,11.2988 -2.0592,1.8604 -3.9502,3.3828 -4.2012,3.3828 -0.2511,0 1.0063,-7.7625 2.7949,-17.25 6.0769,-32.2328 8.3913,-49.2081 7.2656,-53.2851 -1.9666,-7.1224 -11.475,-14.0531 -23.1113,-16.8438 -0.6675,-0.16 -1.1737,-0.2747 -1.5566,-0.291 z m 418.2207,0.076 -1.7031,10.0371 c -0.9376,5.5206 -4.34,21.7371 -7.5606,36.0371 l -5.8555,26 -8.5507,0.6582 c -11.5949,0.8903 -19.5627,3.0824 -28.9512,7.9668 -9.2557,4.8153 -12.9859,7.6142 -22.1348,16.6113 -26.1198,25.6863 -37.9067,68.2085 -25.7519,92.8985 4.2248,8.5818 11.1355,13.5551 21.2129,15.2695 10.0859,1.7158 20.1618,-0.3634 28.8847,-5.9609 4.6708,-2.9972 12.5872,-10.8295 16.5645,-16.3887 l 2.1074,-2.9453 2.0469,4.0156 c 8.1099,15.8968 22.0657,24.2647 35.8925,21.5215 18.1321,-3.5974 33.465,-19.4373 45.2208,-46.7168 l 3.8105,-8.8457 -1.5273,-5.541 c -1.87,-6.784 -2.7793,-8.043 -5.8184,-8.043 -2.0128,0 -3.0299,1.4115 -6.7422,9.3555 -9.8918,21.168 -22.7286,34.9031 -34.6894,37.1172 -6.0056,1.1117 -7.474,-0.9174 -7.3379,-10.1426 0.1242,-8.4211 1.5326,-16.5597 12.873,-74.3301 9.3578,-47.6702 12.7666,-67.7894 12.9024,-76.1504 0.098,-6.0109 -0.1891,-7.0209 -2.9747,-10.5 -3.7532,-4.6877 -12.2879,-10.006 -17.8281,-11.1094 l -4.0898,-0.8144 z m -648.9824,0.2676 c -4.4788,-0.088 -9.3276,0.9933 -14.25,3.3867 -8.3562,4.063 -20.1698,15.7473 -28.5528,28.2441 -18.5619,27.6711 -34.0983,68.7852 -39.7695,105.2363 -1.8315,11.772 -1.6258,32.6279 0.3965,40.2481 4.2518,16.0209 13.7982,25.8518 27.4316,28.25 11.523,2.027 28.4557,-3.1859 43.1895,-13.2969 15.1205,-10.3764 33.1014,-33.4429 33.0664,-42.418 -0.024,-6.0187 -1.2855,-10.3737 -3.3242,-11.4648 -2.3142,-1.2385 -2.222,-1.3284 -8.4825,8.4004 -10.4648,16.2624 -32.287,32.5915 -45.9121,34.3555 -4.9444,0.6402 -5.3889,0.5097 -8.1074,-2.4004 -4.6142,-4.9395 -5.5318,-10.1651 -4.8262,-27.4688 0.8384,-20.5594 0.6776,-20.0769 7.5117,-22.582 21.9021,-8.0283 42.5266,-29.6835 53.9258,-56.6231 6.7658,-15.9895 11.2463,-39.1786 9.8028,-50.7324 -1.6312,-13.0549 -10.654,-20.9095 -22.0996,-21.1347 z m -4.5645,15.3671 c 4.4048,0 5.6071,2.3093 5.3652,10.3086 -0.5875,19.4297 -11.3161,50.9456 -23.6679,69.5254 -2.4482,3.6826 -7.2984,9.4289 -10.7793,12.7676 -5.9711,5.7269 -10.8301,9.243 -10.8301,7.8379 0,-2.3718 13.0252,-51.431 16.6133,-62.5742 7.8301,-24.3169 16.1662,-37.8653 23.2988,-37.8653 z m -112.0391,56.9297 c -30.422,-0.4335 -60.6068,28.4308 -71.8457,70.9512 -3.6345,13.7507 -3.7886,30.8761 -0.3593,39.9141 4.4338,11.6853 14.897,20.4526 26.4492,22.166 18.3504,2.7216 43.8099,-6.6766 57.2754,-21.1445 3.5307,-3.7936 7.8748,-15.6961 6.8769,-18.8399 -0.9797,-3.0869 -2.9323,-2.478 -9.7519,3.0391 -9.2158,7.4556 -21.0331,13.0362 -28.8887,13.6425 -5.5143,0.4257 -6.8336,0.1754 -9.8652,-1.8691 -5.9967,-4.0442 -7.5195,-8.5523 -7.375,-21.834 0.2777,-25.5126 9.831,-53.1026 22.2636,-64.2949 4.9824,-4.4853 7.821,-5.7051 13.2754,-5.7051 3.234,0 4.6926,0.6574 7.3457,3.3106 4.0352,4.0352 5.2129,10.0596 3.8067,19.4687 -1.1181,7.4814 -0.1652,9.2207 5.0468,9.2207 2.923,0 3.4822,-0.5307 6.0704,-5.75 12.3329,-24.8697 9.8806,-35.8073 -9.1407,-40.7617 -3.7086,-0.966 -7.4475,-1.4604 -11.1836,-1.5137 z m 502.8321,0 c -6.4066,0.036 -13.188,1.3244 -18.3789,3.7071 -22.4691,10.3132 -41.0778,35.5 -49.711,67.2812 -3.604,13.2672 -3.7945,31.6909 -0.416,40.2481 4.4176,11.189 15.2557,20.0948 26.4805,21.7597 15.0599,2.2336 34.7152,-3.1369 48.9941,-13.3867 9.2789,-6.6606 11.2485,-9.2145 13.7871,-17.8808 2.1153,-7.2213 2.159,-7.8763 0.6192,-9.4161 -1.5398,-1.5399 -1.8858,-1.4661 -4.9551,1.0508 -6.7409,5.5277 -18.0533,12.5778 -23.3789,14.5703 -3.0221,1.1308 -7.7492,2.0547 -10.5059,2.0547 -10.7475,0 -14.9078,-5.4051 -16.3535,-21.25 l -0.6152,-6.75 3.9394,0 c 7.8543,0 19.6066,-2.9581 27.8067,-7 14.2769,-7.0371 25.1146,-19.154 29.3242,-32.7832 2.6447,-8.5629 2.6935,-22.0608 0.1,-27.7715 -2.5324,-5.5755 -9.3823,-11.1759 -16.0332,-13.1093 -3.1512,-0.9161 -6.8592,-1.3457 -10.7031,-1.3243 z m -334.9825,0 c -1.8141,0 -2.3222,0.549 -2.3222,2.5156 0,4.4997 -4.7103,24.4487 -11.8047,49.9844 -10.8502,39.0544 -12.0059,48.5409 -7.1621,58.8457 4.4086,9.3788 15.2077,18.967 23.9629,21.2754 10.7279,2.8285 25.0384,-2.9234 36.8886,-14.8262 3.9946,-4.0124 8.0034,-8.5324 8.9063,-10.0449 1.8189,-3.0468 3.209,-3.5721 3.209,-1.2109 0,5.6324 11.9355,19.3936 20.5547,23.6992 6.6681,3.3309 10.3425,3.8967 17.1269,2.6426 17.1144,-3.1638 33.7441,-19.4401 45.5059,-44.5391 3.8578,-8.2323 3.9516,-8.6855 3.2773,-15.8809 -0.6947,-7.4141 -2.1445,-10.1815 -4.8008,-9.1621 -0.7494,0.2875 -3.273,4.2748 -5.6074,8.8614 -9.203,18.0812 -21.2498,32.9338 -29.5137,36.3867 -4.6867,1.9583 -10.1595,1.8935 -10.9355,-0.1289 -2.0732,-5.4026 0.1966,-20.8833 7.9063,-53.9297 3.0516,-13.08 5.8161,-26.3376 6.1425,-29.461 0.8406,-8.0418 -1.8784,-13.9437 -8.2929,-18.0117 -5.5388,-3.5126 -14.412,-7.0156 -17.7715,-7.0156 -2.0627,0 -2.4119,0.6097 -3.0098,5.25 -1.3327,10.3428 -5.8359,28.5022 -10.6816,43.0781 -10.5889,31.8518 -23.3561,52.8148 -36.0977,59.2715 -5.5227,2.7986 -12.2748,3.2174 -13.1953,0.8184 -1.9796,-5.1587 0.207,-20.9145 6.7891,-48.918 8.3761,-35.636 8.9477,-41.4003 4.6933,-47.375 -3.6848,-5.1748 -17.3088,-12.125 -23.7676,-12.125 z m 730.8672,0.168 c -6.4065,0.036 -13.186,1.3244 -18.3769,3.707 -22.469,10.3132 -41.0797,35.5 -49.7129,67.2812 -3.604,13.2672 -3.7945,31.6909 -0.416,40.2481 4.4177,11.189 15.2575,20.0949 26.4824,21.7598 15.0599,2.2336 34.7133,-3.137 48.9922,-13.3868 9.2789,-6.6606 11.2484,-9.2145 13.7871,-17.8808 2.1153,-7.2213 2.159,-7.8762 0.6191,-9.416 -1.5398,-1.5399 -1.8837,-1.4662 -4.9531,1.0507 -6.7409,5.5277 -18.0533,12.5779 -23.3789,14.5704 -3.0222,1.1308 -7.7511,2.0546 -10.5078,2.0546 -10.7475,0 -14.9078,-5.4051 -16.3535,-21.25 l -0.6153,-6.75 3.9395,0 c 7.8542,0 19.6064,-2.9581 27.8066,-7 14.2769,-7.0371 25.1147,-19.154 29.3243,-32.7832 2.6447,-8.5629 2.6935,-22.0607 0.1,-27.7714 -2.5325,-5.5755 -9.3803,-11.176 -16.0313,-13.1094 -3.1511,-0.9161 -6.8611,-1.3457 -10.7051,-1.3242 z m -397.0156,14.9492 c 1.972,0.035 3.8073,0.8346 5.4258,2.4531 2.4022,2.4023 2.5488,3.0664 2.0879,9.5078 -0.9963,13.9237 -12.6842,29.9098 -26.8203,36.6817 -3.5427,1.6972 -7.4998,3.3883 -8.795,3.7578 -2.2855,0.652 -2.3335,0.5427 -1.6328,-3.6797 1.1274,-6.7947 6.3414,-21.6032 10.5118,-29.8516 6.1663,-12.1962 13.3066,-18.9735 19.2226,-18.8691 z m 395.8848,0.1699 c 1.972,0.035 3.8092,0.8347 5.4277,2.4531 2.4023,2.4023 2.5468,3.0664 2.0859,9.5078 -0.9962,13.9237 -12.6823,29.9098 -26.8183,36.6817 -3.5428,1.6972 -7.5017,3.3883 -8.7969,3.7578 -2.2855,0.652 -2.3334,0.5427 -1.6328,-3.6797 1.1275,-6.7947 6.3414,-21.6032 10.5117,-29.8516 6.1664,-12.1962 13.3067,-18.9735 19.2227,-18.8691 z m -162.8164,0.8105 c 2.4304,-0.1586 4.5148,0.47 5.9121,2.0196 2.6835,2.9761 2.3209,12.5211 -1.002,26.3867 -7.6677,31.9964 -21.0898,59.5701 -31.6582,65.0352 -9.1257,4.7191 -13.7462,-1.7202 -12.5078,-17.4297 1.8961,-24.0534 10.8308,-50.6091 21.8496,-64.9434 5.0416,-6.5585 12.0594,-10.7192 17.4063,-11.0684 z m -350.2481,3.9532 c 2.466,-0.059 4.5291,1.2315 5.8985,3.9726 3.3369,6.6797 1.9304,25.6103 -3.2676,43.9825 -6.6721,23.5827 -18.9984,42.6089 -29.6778,45.8085 -4.5934,1.3762 -5.0415,1.3893 -7.8378,0.2559 -4.1257,-1.6722 -4.778,-3.592 -4.1875,-12.3184 1.3056,-19.2921 13.8545,-55.1191 24.7421,-70.6406 4.9928,-7.1175 10.2201,-10.9625 14.3301,-11.0605 z" style="fill:#f9f9f9" inkscape:connector-curvature="0"/><g transform="matrix(1.5834576,0,0,1.5834576,8218.002,7439.4217)" id="g4430"><path style="clip-rule:evenodd;fill:#bab7b4;fill-rule:evenodd;image-rendering:optimizeQuality;shape-rendering:geometricPrecision;text-rendering:geometricPrecision" nodetypes="ccccccccccccccccccccccccccccccccccccccccccccccccccccccccccccccccccccccccccccccccccccccccccccccccccccccccccccccccccccccccccccccccccccccccccccccccccccccccccccccccccccccccccccccccccccccccccccccccccccccccccccccccccccccccccccccccccccccccccccccccccccccccccccccccccccccccccccccccccccccccccccccccccccccccccccsccsscccccccccccccccccccscccccccccccccccccccccccccccccccccccccccccccccccccccccccccccccccccccccccccccccccccccccccccccccccccccccccccccccccccccccccccccccccsccccccccccccccccccccccccccccccccccccccccccccccccccccccccccccccccccccccccccccccccccccccccccccccccccccccccccccccccccccccsscccccccccccccccccccccccccccccccccccccccccccccccccccccccsccccccccscccccccccccccccccccccccccccccccccccc" d="m 274.98125,125.30369 9.34862,-23.9737 8.36352,0 c 9.33296,0 17.36667,-1.19966 24.09725,-3.598333 1.34419,-0.4797 2.63189,-1.00372 3.86288,-1.57649 1.22212,-0.56303 2.4182,-1.1896 3.58919,-1.87498 l 0.003,0.007 0.003,-0.007 -0.003,-0.007 c 0.0886,-0.0493 0.17681,-0.10275 0.26468,-0.15661 l 0.003,0 c 0.0868,-0.0542 0.17363,-0.10772 0.26008,-0.16158 l 0.007,0 c 0.26646,-0.16653 0.53022,-0.33271 0.79179,-0.49946 l 0.2413,-0.15662 0.0213,-0.0142 0.0811,-0.0535 0.17362,-0.11303 0.51516,-0.3522 0.003,0 1.30723,-0.94486 0.18461,-0.14209 0.50301,-0.3916 0.0106,-0.0106 c 0.074,-0.0539 0.14811,-0.11729 0.22181,-0.17611 l 0.0446,-0.0354 0.197,-0.16157 0.0468,-0.0354 1.36577,-1.17514 0.0425,-0.0393 0.18319,-0.16653 1.84812,-1.80642 0.14279,-0.15165 0.0804,-0.0833 0.12437,-0.13713 0.0957,-0.10275 0.11551,-0.12225 0.0946,-0.1024 0.12189,-0.13712 0.0815,-0.0882 0.12969,-0.1467 0.085,-0.0932 0.1141,-0.13216 0.1063,-0.1226 0.0847,-0.0978 0.13607,-0.15662 0.0574,-0.0687 0.14279,-0.16653 0.0751,-0.0882 0.11197,-0.13713 0.0985,-0.11728 0.10772,-0.13252 0.085,-0.10276 0.12012,-0.14669 0.0769,-0.0982 0.11764,-0.14705 0.0804,-0.1024 0.12366,-0.15697 0.0599,-0.0783 0.14386,-0.18602 0.0354,-0.0439 0.16512,-0.21756 0.0213,-0.0283 0.17398,-0.23208 0.0106,-0.0177 0.16937,-0.22926 0.0418,-0.0567 0.13642,-0.1885 0.0592,-0.0826 0.14527,-0.20303 0.0106,-0.0142 0.16619,-0.23563 0.0446,-0.0634 0.1389,-0.20055 0.0397,-0.0578 0.14599,-0.21366 0.0319,-0.0461 0.15059,-0.225 0.0283,-0.0418 0.14599,-0.22075 0.0446,-0.0687 0.135,-0.20693 0.0319,-0.0514 c 0.22713,-0.3515 0.45043,-0.70842 0.67033,-1.06987 l -0.10347,0.23032 c -0.37683,0.84589 -0.7386,1.71304 -1.08528,2.60146 l -2.8e-4,0.002 c -1.75174,4.49358 -2.78146,8.75278 -3.09533,12.78677 -0.0177,0.21543 -0.0319,0.44039 -0.0443,0.66086 -1.56614,1.34153 -3.23688,2.53584 -5.01317,3.583593 -7.50377,4.4111 -17.53601,6.62361 -30.08867,6.62361 l -10.34698,0 -9.34774,23.97402 -86.58616,0.0248 0,-5.45382 82.47355,0 z m 66.31748,-50.961153 0.001,-0.003 0.007,-0.0106 0.0928,-0.21296 0.007,-0.0213 0.007,-0.0142 0.0464,-0.107 0.001,-0.003 0.003,-0.0106 0.0248,-0.0581 0.003,-0.007 10e-4,-0.003 0.0142,-0.0354 0.003,-0.0106 0.0106,-0.0283 0.007,-0.0106 8.9e-4,-0.003 0.0283,-0.0606 0.007,-0.0213 0.007,-0.0177 0.0482,-0.11268 0.0142,-0.0358 5.7e-4,-0.002 0.0142,-0.0376 8.9e-4,-0.002 0.0142,-0.0358 0.003,-0.007 0.0142,-0.0319 0.003,-0.0106 0.0106,-0.0283 0.007,-0.0142 0.007,-0.0248 0.007,-0.0177 0.0106,-0.0213 0.0177,-0.0425 0.0142,-0.0319 0.0106,-0.0319 0.003,-0.007 0.0142,-0.0354 0.001,-0.003 0.0319,-0.0734 8.8e-4,-0.002 0.001,-0.003 10e-4,-0.003 0.0283,-0.068 0.007,-0.0106 0.0284,-0.0634 0.007,-0.0213 0.007,-0.0177 0.007,-0.0283 0.007,-0.0106 0.0106,-0.0283 0.003,-0.0106 0.002,-0.007 0.04,-0.0985 0.003,-0.007 8.9e-4,-0.003 0.0142,-0.0354 0.003,-0.007 0.003,-0.007 0.0248,-0.062 0.007,-0.0142 0.0177,-0.0422 0.007,-0.0177 0.007,-0.0248 0.007,-0.0142 0.0106,-0.0283 0.003,-0.0106 0.0283,-0.0737 0.001,-0.003 0.0142,-0.0383 5.7e-4,-0.002 0.0142,-0.0369 0.003,-0.007 0.0283,-0.0687 10e-4,-0.003 0.007,-0.0142 6e-4,-0.002 0.0248,-0.061 0.0106,-0.0248 0.007,-0.0177 0.0106,-0.0283 0.007,-0.0106 0.0106,-0.0319 0.003,-0.007 0.0142,-0.0354 0.002,-0.003 0.0142,-0.0386 8.8e-4,-0.002 c 2.09016,-5.35986 3.05926,-10.01155 2.90824,-13.95688 l -0.003,-0.0627 -3.2e-4,-0.007 -5.7e-4,-0.0177 -8.9e-4,-0.0177 -0.001,-0.0177 -2.8e-4,-0.0177 -6.1e-4,-0.0177 -8.8e-4,-0.0177 -0.001,-0.0142 0,-8.8e-4 -8.9e-4,-0.0177 -2.8e-4,-0.0177 -0.003,-0.0655 -5.6e-4,-0.003 -8.9e-4,-0.0177 -0.0106,-0.1676 0,-0.003 -10e-4,-0.0177 -6e-4,-0.0177 -10e-4,-0.0177 0,-0.007 -0.002,-0.0248 0,-2.8e-4 0,-0.003 -0.001,-0.0177 -10e-4,-0.0177 -8.9e-4,-0.0177 -10e-4,-0.0177 -0.003,-0.05 0,-0.002 c -0.007,-0.13536 -0.0213,-0.2693 -0.0354,-0.40313 l 0,-2.8e-4 c 1.87795,2.06235 2.9774,4.62568 3.29868,7.69202 -0.29481,0.33414 -0.58522,0.67061 -0.87219,1.0102 l -0.003,-0.001 c -2.37033,2.78323 -4.459,5.70742 -6.2663,8.76667 l 0.0142,-0.0354 z m -39.20796,-2.25004 -1.69352,4.34225 c -0.97413,0.17221 -2.04198,0.25902 -3.20021,0.25902 l -0.007,0 -0.007,0 0,0 -0.003,-6e-4 -5.7e-4,6e-4 -3.11485,0 3.91135,-10.02926 3.15857,0 0.0432,5.6e-4 0.0177,0 0.0248,0 0.007,0 0.0648,3.2e-4 0.0142,0 0.0142,0 0.0283,5.7e-4 0.0354,6e-4 0.0106,0 0.0422,2.9e-4 0.0723,10e-4 0.0106,0 0.0414,0.001 0.0106,0 0.0354,8.8e-4 0.0283,6e-4 0.0142,2.9e-4 0.0411,8.8e-4 0.003,6.1e-4 0.0379,8.8e-4 0.0213,6e-4 0.0177,6.1e-4 0.007,5.6e-4 0.0556,0.002 0.0567,0.002 0.0365,0.002 0.003,0 0.04,0.002 0.073,0.003 0.007,0 0.0794,0.003 0.11835,0.007 0.0248,0.002 0.0319,0.002 0.0588,0.003 0.002,6.1e-4 0.0213,0.001 0.0542,0.003 0.002,0 0,0 0.003,0 0.0528,0.003 0.0213,0.002 0.0744,0.007 10e-4,0 0.0142,10e-4 0.10949,0.007 0.0283,0.002 c 0.19843,0.0177 0.39161,0.0422 0.57809,0.0687 l 6.1e-4,6e-4 0.0283,0.003 0.10099,0.0142 0.0106,0.002 0.002,6e-4 0.0666,0.0106 0.0177,0.003 0.0142,0.002 0.0354,0.007 0.0177,0.003 0.0319,0.007 0.0372,0.007 0.0106,0.002 0.0177,0.003 0.0319,0.007 0.0177,0.003 c 0.25653,0.0489 0.49978,0.10488 0.73091,0.16937 0.84912,0.23776 1.5091,0.58401 1.98255,1.0356 l 0.002,-0.002 c 0.43653,0.42913 0.69101,0.93367 0.76195,1.51353 0.0744,0.60587 -0.0471,1.31552 -0.36531,2.13062 -0.0486,0.12508 -0.0999,0.24768 -0.15378,0.36737 l -4.62806,0 z m 86.4227,26.5595 0.94104,-2.41349 3.35717,0 c -0.3313,0.31323 -0.69069,0.59733 -1.0761,0.86152 -0.23138,0.16157 -0.46488,0.30862 -0.69987,0.44068 -0.23847,0.13712 -0.48586,0.26929 -0.74063,0.3916 l -10e-4,0 -0.002,0 -0.0634,0.0284 c -0.54439,0.26469 -1.11657,0.4995 -1.71478,0.69042 z m 51.04719,-16.06979 5.9879,0 c -0.56392,1.66692 -0.97976,2.89584 -1.25433,3.70832 -0.27532,0.81748 -0.53408,1.53744 -0.78498,2.1785 -1.81648,4.66086 -3.98463,8.90025 -6.49035,12.743323 -2.48411,3.84307 -5.29154,7.2505 -8.37092,10.20721 -7.38021,6.94694 -15.51706,12.26835 -24.34727,15.9598 -8.84441,3.67164 -17.97905,5.51236 -27.38292,5.51236 -6.94017,0 -13.01049,-1.0232 -18.1614,-3.08913 -4.51396,-1.78661 -8.2249,-4.33247 -11.124,-7.61754 l 0.062,0.0354 c 0.63691,0.36237 1.32584,0.71968 2.06649,1.07227 0.73474,0.35256 1.46477,0.67061 2.18977,0.95935 l 0.002,0 0.003,-0.007 c 2.26038,0.9056 4.66735,1.6155 7.21739,2.12946 0.11126,0.0248 0.225,0.0493 0.34122,0.0687 l 0.003,0 0.0383,0.007 0.003,0 0.007,0 0.007,0 0.0177,0.007 6e-4,0 0.007,0.007 6e-4,0 0.007,0 0.0213,0.007 0.007,0 0.0213,0.007 0.0106,0 10e-4,0 0.007,0.007 0.0213,0 0.007,0.007 0.0106,0 0.002,0 0.007,0.007 0.0106,0 0.002,0 0.0106,0 0.002,0 0.0142,0.007 0.003,0 0.007,0 0.007,0.007 0.0379,0.007 0.007,0.007 0.0471,0.007 0.0475,0.007 0.0471,0.007 8.8e-4,0 0.0248,0.007 0.0106,0 0.003,0 0.007,0.007 0.003,0 0.0319,0.007 0.007,0 0.0106,0.007 0.007,0 0.0177,0 0.0106,0.007 0.007,0 0.0106,0 0.0177,0.007 0.007,0 0.0248,0.007 0.0142,0.007 0.007,0 0.007,0 0.0213,0.007 0.0106,0 0.007,0.007 0.007,0 0.0393,0.007 5.7e-4,0 10e-4,0 0.007,0.007 10e-4,0 0.0248,0 0.0142,0.007 10e-4,0 0.0106,0 0.0422,0.007 0.007,0 0.0432,0.007 0.007,0 0.0507,0.0106 0.051,0.007 0.0507,0.0106 0.051,0.007 0.0248,0.007 0.0177,0.007 0.007,0 0.0248,0.007 c 3.13523,0.52845 6.50247,0.79799 10.09339,0.79799 l 0,0 0.007,0 c 7.01376,0 13.89274,-0.9889 20.62747,-2.96674 1.31846,-0.38689 2.62541,-0.81277 3.92081,-1.2679 4.57515,-1.62053 15.28802,-6.77555 22.60502,-12.43981 1.1352,-0.87633 2.25446,-1.79192 3.35629,-2.73178 1.07522,-0.92038 2.14983,-1.88476 3.22328,-2.89347 l 0.003,0 0.001,0 0.0521,-0.0539 c 2.34021,-2.24206 4.52137,-4.72411 6.52461,-7.431383 0.38098,-0.51424 0.76433,-1.05275 1.1497,-1.60572 l -0.003,-0.007 c 0.41584,-0.59729 0.7847,-1.15058 1.1042,-1.64505 l -0.003,0 c 2.24827,-3.41982 4.11056,-7.0291 5.72988,-10.77108 0.10134,-0.23599 0.2002,-0.47261 0.30012,-0.70934 l 2.9e-4,-10e-4 0.0701,-0.1676 0.007,-0.0106 0.0142,-0.0386 0.0213,-0.051 0.0248,-0.0581 0.0106,-0.0319 z m -68.74427,44.880493 0,0 -0.0142,-0.007 -0.007,0 0.0213,0.007 z m 70.78447,-65.893933 c 1.39177,2.26184 2.46727,4.79147 3.22742,7.58916 l -15.42841,4.48767 -21.57293,0 c -0.32209,-0.19488 -0.66146,-0.37091 -1.01788,-0.52845 l 32.65819,-9.49904 2.49329,-0.72499 -0.35968,-1.32435 z m -37.53659,10.74834 c -0.88817,-0.14988 -1.84752,-0.22465 -2.87958,-0.22465 -2.7377,0 -5.37431,0.51779 -7.89863,1.55311 l -3.26675,0 -1.98227,0 -0.68329,1.75234 -1.04538,2.68037 c -3.58267,3.163 -6.34256,7.22831 -8.28581,12.2119 -1.1098,2.84439 -1.73725,5.37552 -1.88061,7.58831 l -0.0106,-0.0106 -0.003,-0.007 c -0.24838,-0.15661 -0.48263,-0.32315 -0.70342,-0.50421 l -0.007,-0.007 c -0.21898,-0.1761 -0.42442,-0.36709 -0.61654,-0.56775 l -0.003,-0.007 -0.0213,-0.0213 c -0.0248,-0.0284 -0.05,-0.0539 -0.074,-0.0783 l -0.003,-0.007 c -0.15768,-0.17645 -0.30579,-0.35762 -0.44423,-0.5435 l -0.002,-0.007 -0.0283,-0.039 -0.0106,-0.0213 c -0.0284,-0.0393 -0.0546,-0.0783 -0.0815,-0.11764 l -3.2e-4,0 -0.0319,-0.0439 -0.0177,-0.0248 c -0.0248,-0.0354 -0.0475,-0.0734 -0.0709,-0.10772 l -0.003,-0.007 -0.0106,-0.0248 -0.0372,-0.0585 -0.007,-0.007 -0.0142,-0.0248 -0.0142,-0.0248 -0.0507,-0.0833 -0.007,-0.007 -0.003,-0.007 -0.0248,-0.0443 -0.0106,-0.0213 -0.0177,-0.0284 -0.0177,-0.0354 -0.007,-0.0142 -0.0283,-0.0489 c -0.74951,-1.39532 -1.06249,-3.08941 -0.93954,-5.08673 0.12614,-2.0609 0.71819,-4.44512 1.77328,-7.14855 1.01672,-2.60823 2.26308,-4.93601 3.73816,-6.98535 1.42752,-1.98376 3.08026,-3.71154 4.95878,-5.18549 l 0.007,-0.003 c 1.52415,-1.20231 3.09029,-2.14629 4.69456,-2.8317 l 0,10e-4 c 0.35079,-0.14989 0.66586,-0.27532 0.9428,-0.37566 l 0.13571,-0.0485 0.007,-0.002 0.12933,-0.045 c 0.12791,-0.0439 0.25583,-0.0865 0.38452,-0.12685 l 0.0284,-0.0106 0.0354,-0.0106 0.10382,-0.0319 0.0142,-0.003 0.0918,-0.0283 0.0507,-0.0142 0.0758,-0.0248 0.062,-0.0177 c 0.0843,-0.0248 0.1683,-0.0475 0.25264,-0.0705 l 0.0106,-0.003 c 0.0829,-0.0248 0.16583,-0.0446 0.2491,-0.0655 l 0.0439,-0.0106 c 0.0811,-0.0213 0.16299,-0.0408 0.24413,-0.0599 l 0.0436,-0.0106 0.10772,-0.0248 0.003,-10e-4 0.10346,-0.0248 0.0372,-0.007 0.0283,-0.007 c 0.13074,-0.0283 0.26185,-0.0553 0.39309,-0.0808 l 0.13181,-0.0248 0.0106,-0.002 c 0.17575,-0.0319 0.35185,-0.0624 0.52873,-0.09 l 0.0376,-0.007 0.0177,-0.003 0.12331,-0.0177 0.10134,-0.0142 0.0648,-0.0106 0.007,-10e-4 0.10985,-0.0142 0.002,0 0.10843,-0.0142 0.0461,-0.007 c 0.0826,-0.007 0.16547,-0.0177 0.24839,-0.0283 l 0.0248,-0.002 0.0613,-0.007 0.0819,-0.007 0.068,-0.007 0.0213,-10e-4 0.0971,-0.007 c 0.17185,-0.0142 0.34405,-0.0283 0.51661,-0.0354 l 0.0365,-0.002 c 0.135,-0.007 0.27,-0.0106 0.40521,-0.0177 l 0.12508,-0.003 0.0177,-5.7e-4 0.0248,-6e-4 c 0.32067,-0.007 0.64166,-0.003 0.96293,0.007 l 0.0177,5.6e-4 0.0319,8.9e-4 0.0177,0.001 0.12933,0.007 0.002,0 0.10594,0.007 0.007,3.2e-4 c 0.32421,0.0177 0.64817,0.0422 0.9709,0.0765 l 0.0666,0.007 0.0932,0.0106 0.0213,0.002 c 0.22819,0.0283 0.45634,0.0578 0.68361,0.0935 l 0.0142,0.002 0.007,0.002 c 0.0918,0.0142 0.18248,0.0283 0.27354,0.045 l 0.11623,0.0213 0.003,8.8e-4 c 0.0971,0.0177 0.19524,0.0361 0.29268,0.056 0.97529,0.23741 1.83536,0.59319 2.57984,1.06902 1.08114,0.68981 1.9282,1.6465 2.53939,2.86951 0.1109,0.2211 0.22145,0.47289 0.33059,0.75278 0.0751,0.19311 0.14598,0.39575 0.21295,0.60764 z m -273.56518,-24.58758 3.7863,0 0,45.23868 c 0,1.80642 0.0797,3.4172 0.24166,4.83701 l -0.007,-0.007 -0.002,0 -6.1e-4,0 -0.003,0 -0.007,-0.007 -6e-4,0 -0.002,0 -0.007,0 0,0 -0.007,-0.007 -0.002,0 -6e-4,0 -0.003,-0.007 -0.007,0 -8.8e-4,0 -0.002,0 -0.007,-0.007 -5.7e-4,0 -0.002,0 -0.007,0 0,0 -0.001,0 -0.002,0 -0.001,-0.007 -8.9e-4,0 -8.8e-4,0 -0.001,0 -0.001,0 -0.003,0 -0.003,0 -0.001,-0.007 -0.002,0 -2.9e-4,0 -0.003,0 -0.002,0 -0.002,0 0,0 -0.003,-0.007 -0.002,0 -0.002,0 -0.003,0 -0.002,0 -0.003,-0.007 -0.007,0 -0.002,0 -0.003,0 -10e-4,-0.007 -0.002,0 c -0.88072,-0.36737 -1.57528,-0.92537 -2.08598,-1.66454 l -0.007,-0.0213 c -0.5772,-0.8178 -1.01877,-2.03191 -1.32587,-3.64238 -0.332,-1.74288 -0.49741,-3.87737 -0.49741,-6.41321 l 0,-38.28699 z m 51.39534,0 3.45292,0 0,53.145013 c -0.21402,2.40374 -0.53316,4.55772 -0.95786,6.45721 -0.85681,3.8138 -2.22817,7.00579 -4.1129,9.58093 -3.68464,5.1695 -8.69722,9.15945 -15.05958,11.90604 -6.36148,2.7708 -13.62316,4.14156 -21.76356,4.14156 -8.20424,0 -15.48726,-1.37076 -21.84959,-4.14156 -5.26468,-2.27161 -9.60516,-5.39504 -13.03355,-9.33591 0.51424,0.35256 1.04035,0.6901 1.57794,1.02321 0.79504,0.48468 1.64356,0.96438 2.54558,1.42958 5.29483,2.78054 10.91919,4.2592 16.73862,5.05215 l 0.0248,0 c 8.4983,1.08085 16.9251,0.44451 25.25729,-1.68906 0.98362,-0.28417 1.96218,-0.60204 2.93513,-0.95464 0.97916,-0.3522 1.91608,-0.71968 2.81013,-1.10625 l 0,0 0.003,-0.007 0.001,0 0.0213,-0.007 -10e-4,0 c 4.78499,-2.07096 8.84144,-4.80745 12.17792,-8.2001 0.66944,-0.68035 1.29185,-1.36577 1.867,-2.05143 1.8011,-2.02543 3.11808,-4.36766 4.29144,-6.79504 0.71731,-1.66928 1.30043,-3.50525 1.74937,-5.50258 0.44688,-1.997363 0.77935,-4.229643 0.99631,-6.692203 0.21826,-2.48206 0.32775,-5.2041 0.32775,-8.17587 l 0,-38.07627 z m 68.26811,0 3.781,0 0,22.04522 -32.83438,0 0,-4.9759 29.05338,0 0,-17.06932 z m -2.70517,30.50777 3.78659,0 0,12.87546 -3.27618,8.40107 -26.85181,0 0,-5.44407 26.3414,0 0,-15.83246 z" class="fil40" id="path4432" inkscape:connector-curvature="0"/><path style="clip-rule:evenodd;fill:#f9f9f9;fill-opacity:1;fill-rule:evenodd;image-rendering:optimizeQuality;shape-rendering:geometricPrecision;text-rendering:geometricPrecision" nodetypes="ccccccssccccccsccscccccccccccccccccccccccccccccccccccccccccccccccccccccccccccccccccccccccccccccccccccccccccccccccccsccccccsccccccccccccccccccccsccccsscccccccccccccccccccccccccccccccccccccccccccccccccccccccccccccsssccsccccccccccccccccccccsccccccccsccsccccccccccscccccccccccccccccccccccscccccccccccccssccscccccccccccccccccccccccccccccccccccccscccc" d="m 384.22621,92.494467 0.41641,0 0,-1.06724 -0.41641,1.06724 z m -287.093203,-50.45194 0,43.51975 c 0,4.25919 0.217205,7.94561 0.644031,11.04952 0.09319,0.68035 0.181772,1.25312 0.265394,1.7281 0.08717,0.49443 0.194173,1.02791 0.319961,1.60069 l -0.0024,0 0.0029,0.007 c 0.400783,1.821193 0.915626,3.475993 1.546937,4.973853 0.62036,1.46859 1.35865,2.79535 2.21694,3.97516 l 0.007,0.0142 c 2.53052,3.5493 5.71688,6.51607 9.56587,8.87574 0.77524,0.47494 1.54987,0.91059 2.32331,1.31198 3.86585,1.99761 8.0686,3.35835 12.33814,4.1664 3.51649,0.66557 7.2753,0.99836 11.27502,0.99836 5.69587,0 10.93039,-0.6851 15.69469,-2.06561 0.93841,-0.27425 1.84723,-0.56806 2.7259,-0.88136 0.86272,-0.31323 1.73399,-0.66083 2.61354,-1.04269 l 0.0283,-0.007 0.003,0 0.001,0 c 4.3656,-1.88947 8.06265,-4.38629 11.09945,-7.47039 0.57072,-0.58284 1.13669,-1.20437 1.69678,-1.87498 1.59746,-1.82739 2.80006,-3.8797 3.8469,-6.06592 0.65317,-1.52239 1.18399,-3.19196 1.59215,-5.008123 0.40964,-1.83096 0.72025,-3.94564 0.93157,-6.33989 0.20941,-2.37919 0.31464,-5.02764 0.31464,-7.94062 l 0,-43.51975 -29.66839,0 0,43.73018 0.007,0 c 0,2.65851 -0.18567,4.93012 -0.55917,6.81484 -0.39366,1.98287 -1.00754,3.57382 -1.84454,4.76816 l -0.003,0 c -0.7353,1.0575 -1.67637,1.89479 -2.82281,2.5116 -0.2296,0.12225 -0.45928,0.234933 -0.68743,0.332723 -1.40301,0.61211 -3.05869,0.91563 -4.96499,0.91563 l 0,0.007 -0.003,0 c -1.91874,0 -3.58359,-0.29374 -4.99812,-0.88636 -1.47479,-0.621573 -2.64044,-1.551973 -3.50022,-2.795353 l -0.003,0 c -0.81514,-1.1553 -1.41303,-2.7365 -1.79667,-4.74864 -0.35851,-1.87526 -0.53614,-4.18089 -0.53614,-6.9177 l 0,-43.73019 -29.668706,0 z m 91.231363,0 0,80.016593 58.83703,0 0,-19.50407 -28.12266,0 -1.674,0 0,-1.50792 0,-8.728833 0,-1.50789 1.674,0 24.68066,0 0,-18.26012 -24.68066,0 -1.66691,0 0,-1.50643 0,-7.99498 0,-1.50644 1.66691,0 27.37254,0 0,-19.49991 -58.08691,0 z m 81.04542,11.56376 -2.95551,7.57736 0,60.371263 2.95551,0 0,-67.948623 z m -6.77849,17.38084 -2.95551,7.57736 0,42.990423 2.95551,0 0,-50.567783 z m -6.77849,17.38052 -2.95494,7.57825 0,25.609013 2.95494,0 0,-33.187263 z m 17.37996,30.083393 2.9555,-7.57857 0,-67.020593 -2.9555,0 0,74.599163 z m 6.77848,-17.38439 0.67444,-1.728103 0.68361,-1.75263 1.59746,0 0,-53.73404 -2.95551,0 0,57.214773 z m 6.77821,-3.480733 2.95522,0 0,-17.6276 -1.37285,0 0.68244,-1.74968 0.69041,-1.77035 0,-32.58641 -2.95522,0 0,53.73404 z m 6.77849,0 0.12968,0 c 0.95762,0 1.89953,-0.0142 2.82579,-0.0393 l 0,-17.6501 c -1.00754,0.0858 -1.85843,0.11516 -2.95551,0.11303 l 0,17.57619 z m 6.77848,-0.23031 c 1.00577,-0.0687 1.99053,-0.16122 2.95491,-0.26433 l 0,-18.55184 c -0.69452,0.28949 -1.42189,0.53465 -2.18027,0.73534 -0.22677,0.0599 -0.47792,0.12048 -0.7516,0.18107 l -0.0248,0.003 0,17.89689 z m 6.77849,-0.793 c 1.01048,-0.17149 1.99556,-0.36233 2.95491,-0.57277 l 0,-23.54131 c -0.46786,0.94458 -1.05747,1.8135 -1.76829,2.60912 -0.36705,0.41024 -0.7628,0.79681 -1.18662,1.15976 l 0,20.3452 z m 6.77849,-1.5667 c 0.70696,-0.21508 1.39794,-0.44037 2.07269,-0.68036 0.29729,-0.10771 0.59081,-0.21543 0.88225,-0.32811 l 0,-49.95956 c -0.95613,-0.0581 -1.9412,-0.1017 -2.95494,-0.13111 l 0,51.09921 z m 6.77849,-2.70699 c 0.56923,-0.29374 1.116,-0.59258 1.63881,-0.90113 l -0.003,-0.007 0.003,0 0.003,0.007 c 0.44479,-0.25901 0.88253,-0.53344 1.31343,-0.81719 l 0,-45.81117 c -0.94548,-0.15484 -1.93055,-0.28949 -2.95496,-0.40433 l 0,47.93382 z m 6.7782,-4.66557 c 1.035,-0.93009 2.02008,-1.9338 2.95491,-3.01079 l 0,-38.17796 c -0.25973,-0.0925 -0.52459,-0.18248 -0.79502,-0.27 -0.63368,-0.20587 -1.32112,-0.40401 -2.06032,-0.59347 l -0.0996,-0.0248 0,42.07719 z m 6.77849,-8.28404 c 0.0974,-0.16087 0.19488,-0.32315 0.29126,-0.48586 0.63602,-1.08114 1.24044,-2.21638 1.81321,-3.40565 0.29304,-0.60856 0.57632,-1.22953 0.85061,-1.86258 l 0,-23.13673 c -0.82371,-0.83168 -1.80879,-1.58503 -2.95522,-2.26006 l 0,31.15088 z m -24.15876,-35.48754 -2.95491,0 0,19.75561 c 1.04124,0.3573 1.89181,0.85294 2.55267,1.48454 l 0.007,0.0106 c 0.14279,0.1396 0.27496,0.28417 0.39632,0.43327 l 0,-21.68348 z m -6.77849,0 -2.95491,0 0,19.06697 1.7943,0 c 0.40046,0 0.78704,0.0106 1.16061,0.0284 l 0,-19.09475 z m -6.77789,0 -2.9555,0 0,22.78265 0.76578,-1.96334 0.68389,-1.75234 1.50583,0 0,-19.06697 z m 91.94215,48.6426 2.95494,0 0,-15.58418 -1.11748,0 -1.83746,4.71168 0,10.8725 z m 6.77849,0 1.37463,0 1.58088,0 0,-15.58418 -2.95551,0 0,15.58418 z m 2.95551,1.30719 -0.41524,0.72443 c -0.67947,1.18485 -1.52593,2.25681 -2.54027,3.21647 l 0,21.819723 c 1.00814,-0.3573 1.98553,-0.71493 2.95551,-1.08673 l 0,-24.673893 z m -6.77906,6.608873 c -0.13145,0.0638 -0.26433,0.13252 -0.39929,0.19595 l 8.9e-4,0.007 c -0.81869,0.40135 -1.67135,0.74388 -2.55654,1.02791 l 0,19.88121 c 0.79268,-0.17149 1.62199,-0.35256 2.49623,-0.54825 0.15342,-0.0443 0.30579,-0.0932 0.45871,-0.13748 l 0,-20.4244 z m -6.77792,2.08067 c -0.95552,0.12224 -1.94059,0.19098 -2.9555,0.20586 l 0,20.16996 c 0.91562,-0.15661 1.89478,-0.33768 2.9555,-0.54825 l 0,-19.82743 z m -6.77848,-0.0284 c -1.07196,-0.15201 -2.05703,-0.38658 -2.95523,-0.70491 l 0,21.91759 c 0.93692,-0.0492 1.90751,-0.12756 2.95523,-0.2498 l 0,-20.96292 z m -6.77849,-2.986273 c -0.64311,-0.62656 -1.18162,-1.34149 -1.61578,-2.14926 -0.95138,-1.7674 -1.35036,-3.87733 -1.19966,-6.33012 0.14669,-2.38897 0.8128,-5.09619 1.99499,-8.13004 0.25901,-0.66413 0.53259,-1.31344 0.82045,-1.94829 l 0,-30.63696 c -0.2537,0.13465 -0.50747,0.27106 -0.76047,0.40908 -0.756,0.41198 -1.48779,0.82722 -2.19447,1.24455 l 0,71.558823 c 1.04244,0.0879 2.01274,0.15201 2.95494,0.19098 l 0,-24.208683 z m 3.82326,-25.0696 c 0.91148,-1.21649 1.89627,-2.35318 2.95523,-3.41068 l 0,-23.87381 c -0.99365,0.40195 -1.97873,0.82637 -2.95523,1.27353 l 0,26.01096 z m 6.77821,-6.66234 c 0.96466,-0.69367 1.94917,-1.31432 2.9555,-1.86109 l 0,-21.11456 c -0.25937,0.0758 -0.51778,0.15236 -0.77641,0.23137 l 0,-0.001 -0.007,0.003 c -0.72854,0.22182 -1.45293,0.45543 -2.17379,0.70016 l 0,22.04288 z m 6.77848,-3.54635 c 1.00517,-0.34477 1.99588,-0.60499 2.95494,-0.79679 l 0,-20.25067 c -0.69073,0.12827 -1.37994,0.26716 -2.06886,0.41705 -0.2941,0.0641 -0.58993,0.1311 -0.88608,0.20019 l 0,20.43032 z m 6.77849,-1.24456 c 1.0906,-0.039 2.08779,6.1e-4 2.95551,0.0847 l 0,-20.79655 c -0.98713,0.0818 -1.97192,0.18496 -2.95551,0.31075 l 0,20.40108 z m 6.77849,0.95819 c 0.64311,0.2544 1.2425,0.558 1.79607,0.91208 0.41378,0.26397 0.80007,0.55502 1.15887,0.87247 l 0,-23.66724 c -0.42651,-0.007 -0.85741,-0.0106 -1.29157,-0.0106 -0.55506,0 -1.1092,0.007 -1.66337,0.0213 l 0,21.87443 z m 6.7782,4.96853 2.95523,-0.85918 0,-25.4834 c -0.96056,-0.13252 -1.94563,-0.23988 -2.95523,-0.32138 l 0,26.66413 z m 6.77849,-1.97136 2.95523,-0.85914 0,-22.03314 c -0.81132,-0.25228 -1.64506,-0.48026 -2.50247,-0.68449 -0.15023,-0.0358 -0.30082,-0.0705 -0.45276,-0.10453 l 0,23.68141 z m 6.77849,-1.97132 2.95494,-0.85946 0,-17.08647 c -0.94046,-0.5586 -1.92494,-1.06929 -2.95494,-1.53333 l 0,19.47926 z m 6.77849,-1.97163 2.95494,-0.85975 0,-9.33236 c -0.88994,-1.10063 -1.87558,-2.11823 -2.95494,-3.05395 l 0,13.24606 z m 6.77848,-1.97132 0.53997,-0.15733 c -0.16831,-0.49978 -0.34866,-0.9895 -0.53997,-1.46976 l 0,1.62702 z m -71.60729,-6.64551 c -1.01136,0.67861 -1.99644,1.37434 -2.9555,2.08718 l 0,66.343223 c 0.37506,0.0734 0.72942,0.13677 1.06487,0.19559 0.66146,0.0588 1.28951,0.11764 1.89063,0.17646 l 0,-68.802493 z m -6.77848,5.14499 c -0.0925,0.079 -0.18496,0.15909 -0.27709,0.23917 -0.91913,0.79948 -1.81173,1.6211 -2.67768,2.46462 l 0,58.647903 c 0.94784,0.3718 1.93259,0.70487 2.95491,1.00842 l 0,-62.360043 z m -6.77849,6.7652 c -0.12189,0.14138 -0.24307,0.28346 -0.36411,0.42587 l -0.003,0.007 c -0.90826,1.06636 -1.76978,2.15252 -2.5864,3.25846 l 0,47.230443 c 0.83168,0.60676 1.70801,1.16979 2.62924,1.69381 0.10878,0.0634 0.21756,0.12224 0.32563,0.18106 l 0,-52.799533 z m -6.77849,9.59804 c -0.40666,0.72411 -0.7965,1.45499 -1.16862,2.1933 -0.36411,0.72319 -0.73828,1.5153 -1.12159,2.37533 -0.23138,0.51988 -0.4528,1.03858 -0.66469,1.55463 l 0,27.786333 c 0.12897,0.22004 0.26078,0.43565 0.39603,0.65112 0.32669,0.51898 0.70459,1.06721 1.13255,1.64002 l 2.8e-4,0 0.003,0.007 5.7e-4,0 c 0.44985,0.58726 0.92391,1.15533 1.42161,1.70358 l 0,-37.909313 z m 58.0506,40.998403 c 0.95701,-0.45043 1.93557,-0.94486 2.95494,-1.50286 l 0,-38.441903 -2.95494,0 0,39.944763 z m 6.7782,-3.794 c 0.93717,-0.60707 1.9187,-1.27293 2.95523,-2.01242 l 0,-34.138343 -2.95523,0 0,36.150763 z m 6.77849,-4.86152 c 0.97888,-0.76372 1.94652,-1.55668 2.9041,-2.37448 l 0.051,-0.0436 0,-28.871003 -2.95523,0 0,31.289243 z m 6.77849,-5.92345 c 1.0164,-1.0232 2.00236,-2.10522 2.95494,-3.241033 l 0,-22.12476 -2.95494,0 0,25.365793 z m 6.77849,-8.376563 c 0.10452,-0.16122 0.2133,-0.32811 0.32492,-0.49918 l 0.0283,-0.0393 0.001,0 2.8e-4,0 c 0.91414,-1.40003 1.78069,-2.85885 2.59997,-4.3718 l 0,-12.07892 -2.95494,0 0,16.98923 z m 6.77848,-13.28566 c 0.0563,-0.15414 0.12225,-0.33485 0.19666,-0.54146 0.13996,-0.38866 0.27,-0.75986 0.39043,-1.11805 l 0.69098,-2.04406 -1.27824,0 0,3.70357 z" class="fil41" id="path4434" inkscape:connector-curvature="0"/></g></g></svg>